<svg aria-hidden="true" style="width:0;height:0;position:absolute;overflow:hidden" xmlns="http://www.w3.org/2000/svg"><defs><symbol id="icon-zoom" viewBox="0 0 32 32"><path d="m27.414 24.586-5.077-5.077A9.932 9.932 0 0 0 24 14c0-5.514-4.486-10-10-10S4 8.486 4 14s4.486 10 10 10a9.932 9.932 0 0 0 5.509-1.663l5.077 5.077a2 2 0 1 0 2.828-2.828zM7 14c0-3.86 3.14-7 7-7s7 3.14 7 7-3.14 7-7 7-7-3.14-7-7z"/></symbol><symbol id="icon-arrow-up" viewBox="0 0 24 24"><path d="M23 12c0-3.037-1.232-5.789-3.222-7.778S15.037 1 12 1 6.211 2.232 4.222 4.222 1 8.963 1 12s1.232 5.789 3.222 7.778S8.963 23 12 23s5.789-1.232 7.778-3.222S23 15.037 23 12zm-2 0c0 2.486-1.006 4.734-2.636 6.364S14.486 21 12 21s-4.734-1.006-6.364-2.636S3 14.486 3 12s1.006-4.734 2.636-6.364S9.514 3 12 3s4.734 1.006 6.364 2.636S21 9.514 21 12zm-8 4v-5.586l2.293 2.293a.999.999 0 1 0 1.414-1.414l-4-4a.998.998 0 0 0-1.414 0l-4 4a.999.999 0 1 0 1.414 1.414L11 10.414V16a1 1 0 0 0 2 0z"/></symbol></defs></svg>